<!DOCTYPE svg PUBLIC "-//W3C//DTD SVG 1.1//EN" "http://www.w3.org/Graphics/SVG/1.1/DTD/svg11.dtd">
<!-- Uploaded to: SVG Repo, www.svgrepo.com, Transformed by: SVG Repo Mixer Tools -->
<svg fill="#ebebeb" height="800px" width="800px" version="1.1" id="Capa_1" xmlns="http://www.w3.org/2000/svg" xmlns:xlink="http://www.w3.org/1999/xlink" viewBox="0 0 465 465" xml:space="preserve" stroke="#ebebeb">
<g id="SVGRepo_bgCarrier" stroke-width="0"/>
<g id="SVGRepo_tracerCarrier" stroke-linecap="round" stroke-linejoin="round"/>
<g id="SVGRepo_iconCarrier"> <g> <path d="M339.599,0H125.401c-22.904,0-41.538,18.634-41.538,41.538v381.924c0,22.904,18.634,41.538,41.538,41.538h214.197 c22.904,0,41.538-18.634,41.538-41.538V41.538C381.137,18.634,362.503,0,339.599,0z M366.137,423.462 c0,14.633-11.905,26.538-26.538,26.538H125.401c-14.633,0-26.538-11.905-26.538-26.538V41.538C98.863,26.905,110.768,15,125.401,15 h214.197c14.633,0,26.538,11.905,26.538,26.538V423.462z"/> <path d="M326.859,46.777H138.141c-4.142,0-7.5,3.357-7.5,7.5v118.179v238.267c0,4.143,3.358,7.5,7.5,7.5s7.5-3.357,7.5-7.5V179.956 h12.5c4.142,0,7.5-3.357,7.5-7.5s-3.358-7.5-7.5-7.5h-12.5V61.777h173.718v103.179H188.141c-4.142,0-7.5,3.357-7.5,7.5 s3.358,7.5,7.5,7.5h131.218v230.767c0,4.143,3.358,7.5,7.5,7.5s7.5-3.357,7.5-7.5V172.456V54.277 C334.359,50.135,331.001,46.777,326.859,46.777z"/> <path d="M232.5,348.961c-13.937,0-25.275,11.339-25.275,25.275s11.338,25.275,25.275,25.275s25.275-11.339,25.275-25.275 S246.437,348.961,232.5,348.961z M232.5,384.512c-5.666,0-10.275-4.609-10.275-10.275s4.609-10.275,10.275-10.275 s10.275,4.609,10.275,10.275S238.166,384.512,232.5,384.512z"/> <path d="M232.5,201.143c-34.912,0-63.315,28.403-63.315,63.315s28.403,63.315,63.315,63.315s63.315-28.403,63.315-63.315 S267.412,201.143,232.5,201.143z M232.5,312.773c-26.641,0-48.315-21.674-48.315-48.315s21.674-48.315,48.315-48.315 s48.315,21.674,48.315,48.315S259.141,312.773,232.5,312.773z"/> <path d="M232.5,234.872c-16.314,0-29.586,13.272-29.586,29.586c0,16.314,13.272,29.587,29.586,29.587s29.586-13.272,29.586-29.587 C262.086,248.145,248.814,234.872,232.5,234.872z M232.5,279.045c-8.043,0-14.586-6.544-14.586-14.587s6.543-14.586,14.586-14.586 s14.586,6.543,14.586,14.586S240.543,279.045,232.5,279.045z"/> </g> </g>
</svg>